HIERARCHY
ROOT newVegas:Hips
{
	OFFSET 0.000000 96.479958 0.000000
	CHANNELS 6 Xposition Yposition Zposition Xrotation Yrotation Zrotation
	JOINT newVegas:Pelvis
	{
		OFFSET 0.000000 0.000000 0.000000
		CHANNELS 3 Xrotation Yrotation Zrotation
		JOINT newVegas:LeftUpLeg
		{
			OFFSET 18.735201 -5.666702 -4.541200
			CHANNELS 3 Xrotation Yrotation Zrotation
			JOINT newVegas:LeftLeg
			{
				OFFSET -0.021200 -31.938179 0.493100
				CHANNELS 3 Xrotation Yrotation Zrotation
				JOINT newVegas:LeftFoot
				{
					OFFSET 0.021200 -31.938179 -4.336299
					CHANNELS 3 Xrotation Yrotation Zrotation
					JOINT newVegas:LeftToeBase
					{
						OFFSET 0.943001 -26.722000 15.023500
						CHANNELS 3 Xrotation Yrotation Zrotation
						End Site
						{
							OFFSET 0.000000 30.670183 0.000000
						}
					}
				}
				JOINT newVegas:Left_PantLeg
				{
					OFFSET 0.663870 -9.044666 -1.108900
					CHANNELS 3 Xrotation Yrotation Zrotation
					End Site
					{
						OFFSET 1.415995 20.635357 0.000000
					}
				}
			}
		}
		JOINT newVegas:RightUpLeg
		{
			OFFSET -18.735201 -5.666702 -4.541200
			CHANNELS 3 Xrotation Yrotation Zrotation
			JOINT newVegas:RightLeg
			{
				OFFSET 0.018946 -31.938133 0.493100
				CHANNELS 3 Xrotation Yrotation Zrotation
				JOINT newVegas:RightFoot
				{
					OFFSET -0.018946 -31.938126 -4.336299
					CHANNELS 3 Xrotation Yrotation Zrotation
					JOINT newVegas:RightToeBase
					{
						OFFSET -0.943001 -26.722004 15.023500
						CHANNELS 3 Xrotation Yrotation Zrotation
						End Site
						{
							OFFSET 0.000000 30.670187 0.000000
						}
					}
				}
				JOINT newVegas:Right_PantLeg
				{
					OFFSET -0.661674 -9.044716 -1.108900
					CHANNELS 3 Xrotation Yrotation Zrotation
					End Site
					{
						OFFSET -1.415958 20.635269 0.000000
					}
				}
			}
		}
	}
	JOINT newVegas:Spine
	{
		OFFSET 0.000000 10.199997 -0.299500
		CHANNELS 3 Xrotation Yrotation Zrotation
		JOINT newVegas:Spine1
		{
			OFFSET 0.000000 11.900002 -1.516600
			CHANNELS 3 Xrotation Yrotation Zrotation
			JOINT newVegas:Spine2
			{
				OFFSET 0.000000 13.600006 -2.842500
				CHANNELS 3 Xrotation Yrotation Zrotation
				JOINT newVegas:Neck
				{
					OFFSET 0.000000 9.624100 -2.890100
					CHANNELS 3 Xrotation Yrotation Zrotation
					JOINT newVegas:Head
					{
						OFFSET 0.000000 14.068802 -1.351900
						CHANNELS 3 Xrotation Yrotation Zrotation
						JOINT newVegas:Hair_Back
						{
							OFFSET 0.000000 3.231903 -17.524799
							CHANNELS 3 Xrotation Yrotation Zrotation
							End Site
							{
								OFFSET 0.000000 19.849884 0.000000
							}
						}
						JOINT newVegas:Hair_Front
						{
							OFFSET 0.000000 31.260406 4.573800
							CHANNELS 3 Xrotation Yrotation Zrotation
							JOINT newVegas:Hair_Front1
							{
								OFFSET 0.000000 2.284103 11.993300
								CHANNELS 3 Xrotation Yrotation Zrotation
								JOINT newVegas:Hair_Front2
								{
									OFFSET 0.000000 2.284103 11.993300
									CHANNELS 3 Xrotation Yrotation Zrotation
									End Site
									{
										OFFSET 0.000000 12.208862 0.000000
									}
								}
							}
						}
						JOINT newVegas:Jowel
						{
							OFFSET 0.000000 -7.458206 6.864100
							CHANNELS 3 Xrotation Yrotation Zrotation
							End Site
							{
								OFFSET 0.000000 19.849884 0.000000
							}
						}
					}
				}
				JOINT newVegas:LeftShoulder
				{
					OFFSET 15.263000 10.923401 -0.547700
					CHANNELS 3 Xrotation Yrotation Zrotation
					JOINT newVegas:LeftArm
					{
						OFFSET 25.438599 -2.830597 -13.032500
						CHANNELS 3 Xrotation Yrotation Zrotation
						JOINT newVegas:LeftForeArm
						{
							OFFSET 29.960503 0.000000 0.000000
							CHANNELS 3 Xrotation Yrotation Zrotation
							JOINT newVegas:LeftHand
							{
								OFFSET 27.849251 0.000000 0.000000
								CHANNELS 3 Xrotation Yrotation Zrotation
								JOINT newVegas:LeftHandThumb1
								{
									OFFSET 4.487587 -3.305161 6.305391
									CHANNELS 3 Xrotation Yrotation Zrotation
									JOINT newVegas:LeftHandThumb2
									{
										OFFSET 5.480453 -3.164139 3.164143
										CHANNELS 3 Xrotation Yrotation Zrotation
										JOINT newVegas:LeftHandThumb3
										{
											OFFSET 5.159721 -2.978973 2.978967
											CHANNELS 3 Xrotation Yrotation Zrotation
											End Site
											{
												OFFSET 2.494507 5.926697 1.738678
											}
										}
									}
								}
								JOINT newVegas:LeftHandIndex1
								{
									OFFSET 18.578728 -0.527832 5.208049
									CHANNELS 3 Xrotation Yrotation Zrotation
									JOINT newVegas:LeftHandIndex2
									{
										OFFSET 3.192009 0.000000 0.000000
										CHANNELS 3 Xrotation Yrotation Zrotation
										JOINT newVegas:LeftHandIndex3
										{
											OFFSET 3.835129 0.000000 0.000000
											CHANNELS 3 Xrotation Yrotation Zrotation
											End Site
											{
												OFFSET -0.034599 3.816971 0.371180
											}
										}
									}
								}
								JOINT newVegas:LeftHandMiddle1
								{
									OFFSET 18.476105 0.000000 0.000000
									CHANNELS 3 Xrotation Yrotation Zrotation
									JOINT newVegas:LeftHandMiddle2
									{
										OFFSET 3.324875 0.000000 0.000000
										CHANNELS 3 Xrotation Yrotation Zrotation
										JOINT newVegas:LeftHandMiddle3
										{
											OFFSET 4.596550 0.000000 0.000000
											CHANNELS 3 Xrotation Yrotation Zrotation
											End Site
											{
												OFFSET 0.057701 4.578827 0.399218
											}
										}
									}
								}
								JOINT newVegas:LeftHandRing1
								{
									OFFSET 17.732719 0.121887 -4.201567
									CHANNELS 3 Xrotation Yrotation Zrotation
									JOINT newVegas:LeftHandRing2
									{
										OFFSET 2.733170 0.000000 0.000000
										CHANNELS 3 Xrotation Yrotation Zrotation
										JOINT newVegas:LeftHandRing3
										{
											OFFSET 3.178268 0.000000 0.000000
											CHANNELS 3 Xrotation Yrotation Zrotation
											End Site
											{
												OFFSET 0.119102 3.170624 0.185394
											}
										}
									}
								}
								JOINT newVegas:LeftHandPinky1
								{
									OFFSET 15.989624 -0.606689 -7.535461
									CHANNELS 3 Xrotation Yrotation Zrotation
									JOINT newVegas:LeftHandPinky2
									{
										OFFSET 2.538986 0.000000 0.000000
										CHANNELS 3 Xrotation Yrotation Zrotation
										JOINT newVegas:LeftHandPinky3
										{
											OFFSET 2.593102 0.000000 0.000000
											CHANNELS 3 Xrotation Yrotation Zrotation
											End Site
											{
												OFFSET -0.150902 2.584198 0.152708
											}
										}
									}
								}
							}
							JOINT newVegas:Left_Sleeve
							{
								OFFSET 0.267448 -0.649796 0.577675
								CHANNELS 3 Xrotation Yrotation Zrotation
								End Site
								{
									OFFSET 0.000000 15.991241 0.000000
								}
							}
							JOINT newVegas:Left_CapeC
							{
								OFFSET 15.715958 -8.608795 -6.935905
								CHANNELS 3 Xrotation Yrotation Zrotation
								JOINT newVegas:Left_CapeC1
								{
									OFFSET 0.000000 -8.688499 0.000000
									CHANNELS 3 Xrotation Yrotation Zrotation
									End Site
									{
										OFFSET 0.000000 8.688499 0.000000
									}
								}
							}
						}
						JOINT newVegas:Left_CapeB
						{
							OFFSET 26.118385 -8.608795 -7.079235
							CHANNELS 3 Xrotation Yrotation Zrotation
							JOINT newVegas:Left_CapeB1
							{
								OFFSET 0.000000 -8.688499 0.000000
								CHANNELS 3 Xrotation Yrotation Zrotation
								End Site
								{
									OFFSET 0.000000 8.688499 0.000000
								}
							}
						}
						JOINT newVegas:Left_CapeA
						{
							OFFSET 5.115639 -8.608795 -10.395809
							CHANNELS 3 Xrotation Yrotation Zrotation
							JOINT newVegas:Left_CapeA1
							{
								OFFSET 0.000000 -8.688499 0.000000
								CHANNELS 3 Xrotation Yrotation Zrotation
								End Site
								{
									OFFSET 0.000000 8.688499 0.000000
								}
							}
						}
					}
				}
				JOINT newVegas:RightShoulder
				{
					OFFSET -15.263000 10.923401 -0.547700
					CHANNELS 3 Xrotation Yrotation Zrotation
					JOINT newVegas:RightArm
					{
						OFFSET -25.438599 -2.830597 -13.032500
						CHANNELS 3 Xrotation Yrotation Zrotation
						JOINT newVegas:RightForeArm
						{
							OFFSET -29.960503 0.000000 0.000000
							CHANNELS 3 Xrotation Yrotation Zrotation
							JOINT newVegas:RightHand
							{
								OFFSET -27.849251 0.000000 0.000000
								CHANNELS 3 Xrotation Yrotation Zrotation
								JOINT newVegas:RightHandThumb1
								{
									OFFSET -4.487587 -3.305161 6.305391
									CHANNELS 3 Xrotation Yrotation Zrotation
									JOINT newVegas:RightHandThumb2
									{
										OFFSET -5.480453 -3.164139 3.164143
										CHANNELS 3 Xrotation Yrotation Zrotation
										JOINT newVegas:RightHandThumb3
										{
											OFFSET -5.159721 -2.978973 2.978967
											CHANNELS 3 Xrotation Yrotation Zrotation
											End Site
											{
												OFFSET -2.494507 5.926697 1.738678
											}
										}
									}
								}
								JOINT newVegas:RightHandIndex1
								{
									OFFSET -18.578728 -0.527832 5.208049
									CHANNELS 3 Xrotation Yrotation Zrotation
									JOINT newVegas:RightHandIndex2
									{
										OFFSET -3.192009 0.000000 0.000000
										CHANNELS 3 Xrotation Yrotation Zrotation
										JOINT newVegas:RightHandIndex3
										{
											OFFSET -3.835129 0.000000 0.000000
											CHANNELS 3 Xrotation Yrotation Zrotation
											End Site
											{
												OFFSET 0.034599 3.816971 0.371180
											}
										}
									}
								}
								JOINT newVegas:RightHandMiddle1
								{
									OFFSET -18.476105 0.000000 0.000000
									CHANNELS 3 Xrotation Yrotation Zrotation
									JOINT newVegas:RightHandMiddle2
									{
										OFFSET -3.324875 0.000000 0.000000
										CHANNELS 3 Xrotation Yrotation Zrotation
										JOINT newVegas:RightHandMiddle3
										{
											OFFSET -4.596550 0.000000 0.000000
											CHANNELS 3 Xrotation Yrotation Zrotation
											End Site
											{
												OFFSET -0.057701 4.578827 0.399218
											}
										}
									}
								}
								JOINT newVegas:RightHandRing1
								{
									OFFSET -17.732719 0.121887 -4.201567
									CHANNELS 3 Xrotation Yrotation Zrotation
									JOINT newVegas:RightHandRing2
									{
										OFFSET -2.733170 0.000000 0.000000
										CHANNELS 3 Xrotation Yrotation Zrotation
										JOINT newVegas:RightHandRing3
										{
											OFFSET -3.178268 0.000000 0.000000
											CHANNELS 3 Xrotation Yrotation Zrotation
											End Site
											{
												OFFSET -0.119102 3.170624 0.185394
											}
										}
									}
								}
								JOINT newVegas:RightHandPinky1
								{
									OFFSET -15.989624 -0.606689 -7.535461
									CHANNELS 3 Xrotation Yrotation Zrotation
									JOINT newVegas:RightHandPinky2
									{
										OFFSET -2.538986 0.000000 0.000000
										CHANNELS 3 Xrotation Yrotation Zrotation
										JOINT newVegas:RightHandPinky3
										{
											OFFSET -2.593102 0.000000 0.000000
											CHANNELS 3 Xrotation Yrotation Zrotation
											End Site
											{
												OFFSET 0.150902 2.584198 0.152708
											}
										}
									}
								}
							}
							JOINT newVegas:Right_CapeC
							{
								OFFSET -15.715958 -8.608795 -6.935905
								CHANNELS 3 Xrotation Yrotation Zrotation
								JOINT newVegas:Right_CapeC1
								{
									OFFSET 0.000000 -8.688499 0.000000
									CHANNELS 3 Xrotation Yrotation Zrotation
									End Site
									{
										OFFSET 0.000000 8.688499 0.000000
									}
								}
							}
							JOINT newVegas:Right_Sleeve
							{
								OFFSET -0.267448 -0.649994 0.577675
								CHANNELS 3 Xrotation Yrotation Zrotation
								End Site
								{
									OFFSET 0.000000 15.991302 0.000000
								}
							}
						}
						JOINT newVegas:Right_CapeA
						{
							OFFSET -5.115540 -8.608795 -10.395824
							CHANNELS 3 Xrotation Yrotation Zrotation
							JOINT newVegas:Right_CapeA1
							{
								OFFSET 0.000000 -8.688499 0.000000
								CHANNELS 3 Xrotation Yrotation Zrotation
								End Site
								{
									OFFSET 0.000000 8.688499 0.000000
								}
							}
						}
						JOINT newVegas:Right_CapeB
						{
							OFFSET -26.118187 -8.608795 -7.079266
							CHANNELS 3 Xrotation Yrotation Zrotation
							JOINT newVegas:Right_CapeB1
							{
								OFFSET 0.000000 -8.688499 0.000000
								CHANNELS 3 Xrotation Yrotation Zrotation
								End Site
								{
									OFFSET 0.000000 8.688499 0.000000
								}
							}
						}
					}
				}
				JOINT newVegas:Left_Collar
				{
					OFFSET 18.625099 8.655502 8.828100
					CHANNELS 3 Xrotation Yrotation Zrotation
					JOINT newVegas:Left_Collar1
					{
						OFFSET 14.783401 10.540405 -1.259500
						CHANNELS 3 Xrotation Yrotation Zrotation
						End Site
						{
							OFFSET 0.000000 18.199875 0.000000
						}
					}
				}
				JOINT newVegas:Collar_Back
				{
					OFFSET 0.000000 15.630707 -20.132601
					CHANNELS 3 Xrotation Yrotation Zrotation
					End Site
					{
						OFFSET 0.000000 22.523010 0.000000
					}
				}
				JOINT newVegas:Left_Peck
				{
					OFFSET 17.239599 -5.132599 25.482599
					CHANNELS 3 Xrotation Yrotation Zrotation
					End Site
					{
						OFFSET 0.000000 22.523010 0.000000
					}
				}
				JOINT newVegas:Right_Peck
				{
					OFFSET -17.239599 -5.132202 25.482599
					CHANNELS 3 Xrotation Yrotation Zrotation
					End Site
					{
						OFFSET 0.000000 22.523010 0.000000
					}
				}
				JOINT newVegas:Right_Collar
				{
					OFFSET -18.625099 8.655792 8.828100
					CHANNELS 3 Xrotation Yrotation Zrotation
					JOINT newVegas:Right_Collar1
					{
						OFFSET -14.783401 10.539993 -1.259500
						CHANNELS 3 Xrotation Yrotation Zrotation
						End Site
						{
							OFFSET 0.000000 18.199631 0.000000
						}
					}
				}
			}
		}
		JOINT newVegas:Belly
		{
			OFFSET 0.000000 -6.540398 9.014299
			CHANNELS 3 Xrotation Yrotation Zrotation
			End Site
			{
				OFFSET 0.000000 11.566666 0.000000
			}
		}
	}
	JOINT newVegas:ElvisFacialAnim_Joint
	{
		OFFSET 1.000000 -95.330101 -8.825800
		CHANNELS 3 Xrotation Yrotation Zrotation
		End Site
		{
			OFFSET 0.000000 35.315800 0.000000
		}
	}
}
MOTION
Frames: 4
Frame Time: 0.033333
-1.504750 93.564537 2.050358 -1.221891 -29.152931 -5.173301 -0.000000 -0.000001 0.000000 4.599828 9.738165 3.978339 19.511250 8.941860 2.829074 -23.319576 2.053213 -5.196988 -0.000000 -0.000000 -0.000000 -0.000001 -0.000002 0.000001 -18.230272 -8.815544 0.662671 14.184645 18.106644 0.173788 4.935423 -0.140226 3.346559 -0.000000 -0.000001 -0.000000 0.000000 0.000002 -0.000000 14.756636 -4.893473 9.264803 0.817529 -1.715492 -0.483029 0.828870 -1.827769 -0.423707 0.890527 1.560848 1.023982 0.890528 1.560850 1.023975 -0.000001 0.000001 -0.000000 0.890526 1.560870 1.023978 0.890454 1.560867 1.023979 -0.000003 0.000001 -0.000001 -0.000001 0.000001 -0.000000 6.076740 -5.183573 14.607164 -14.239722 -0.965683 -73.028130 -0.135707 -22.912404 -1.220489 -20.406826 -11.665962 22.312585 0.707959 -0.864411 10.223694 6.178413 15.281102 2.977769 0.000001 0.000000 -0.000003 0.500895 0.344111 -10.670643 -1.236417 0.820422 -22.226955 -0.000000 -0.000002 0.000001 2.389504 0.396377 -39.456015 0.001706 0.004542 -11.496107 -0.000003 -0.000001 -0.000003 4.148705 2.772650 -39.180270 -0.336191 -0.798066 -28.666970 0.000001 0.000003 -0.000000 0.005342 0.015679 -46.534099 -0.000813 0.009901 -21.587318 -0.000000 -0.000003 0.000001 -0.000000 0.000001 -0.000001 -0.000000 0.000001 -0.000001 -0.000001 0.000001 -0.000001 0.000002 0.000001 0.000001 0.000003 0.000001 0.000002 0.000002 0.000001 0.000001 0.000002 0.000002 0.000001 -16.029766 2.728900 -54.646513 -28.200294 2.225779 8.555797 -1.350349 154.723606 -69.733199 34.964199 23.787102 39.013091 29.221547 6.688677 -22.093319 12.792949 -29.252665 14.575685 -0.000000 -0.000001 0.000001 15.539191 -0.103556 29.175522 -0.255176 -0.202992 95.183576 0.000000 0.000001 0.000001 8.255136 -5.460912 82.532345 -0.005747 -0.017213 40.398855 -0.000000 0.000000 0.000001 4.974870 -8.422646 86.835965 0.549166 -0.065215 22.642886 -0.000000 0.000001 0.000003 6.322313 -16.841705 78.878146 0.005617 -0.008648 24.498960 -0.000000 -0.000007 0.000002 0.000001 -0.000002 -0.000000 0.000001 -0.000002 0.000000 0.000000 -0.000002 -0.000000 0.000000 -0.000002 -0.000001 -0.000000 -0.000002 -0.000001 0.000000 -0.000002 -0.000001 0.000000 -0.000002 0.000001 0.000001 0.000001 -0.000000 0.000001 0.000001 -0.000000 0.000001 0.000001 -0.000000 0.000001 0.000001 -0.000000 0.000001 0.000001 -0.000000 0.000001 0.000001 -0.000000 0.000001 0.000001 -0.000000 -0.000001 -0.000000 -0.000000 -0.000000 -0.000001 0.000000 
-1.963742 93.430084 1.006617 -0.523083 -30.054458 -4.811146 -0.000000 -0.000000 0.000001 2.659902 9.496812 4.457402 21.077175 9.889949 3.227955 -23.422325 2.364713 -6.247579 -0.000000 0.000000 -0.000000 -0.000000 0.000001 -0.000000 -21.646068 -3.186398 -4.412914 22.981082 3.046901 -0.934640 1.625880 -0.492330 11.832514 -0.000000 -0.000001 -0.000000 0.000000 0.000000 -0.000001 13.984385 -4.361311 8.608115 0.928112 -1.533666 -0.622872 0.940598 -1.649667 -0.561980 1.106330 1.538412 0.880595 1.106331 1.538403 0.880596 -0.000001 0.000000 -0.000000 1.106248 1.538400 0.880594 1.106399 1.538404 0.880592 -0.000001 -0.000000 0.000000 -0.000001 0.000000 0.000000 6.185794 -4.543257 14.243570 -16.797790 -2.276718 -70.779065 -0.050724 -22.571953 -1.071515 -18.563962 -12.788044 21.161982 0.707623 -0.864527 10.222750 6.179173 15.281660 2.977660 0.000003 0.000003 -0.000008 0.500309 0.344368 -10.672197 -1.236446 0.820582 -22.227756 -0.000003 0.000001 -0.000001 2.389214 0.397045 -39.456818 0.001596 0.004573 -11.498066 0.000001 0.000001 -0.000002 4.148109 2.773425 -39.180905 -0.336192 -0.798019 -28.667223 0.000001 0.000003 0.000002 0.004718 0.016651 -46.533136 -0.000725 0.009784 -21.589357 0.000001 -0.000005 -0.000000 0.000000 0.000001 -0.000003 0.000000 0.000001 -0.000003 -0.000000 0.000001 -0.000003 0.000000 0.000003 0.000001 0.000001 0.000002 -0.000002 0.000000 0.000003 0.000001 -0.000000 0.000003 0.000001 -14.169824 1.221933 -54.551160 -27.989968 1.193316 6.612146 -1.318520 155.397186 -71.126182 36.463453 22.169016 36.236923 28.785948 6.801138 -21.641236 13.567698 -31.694438 14.698859 0.000000 -0.000002 -0.000001 16.491263 -0.298894 30.871717 -0.229429 -0.255802 101.104258 -0.000001 0.000000 0.000000 8.788818 -5.208876 88.484855 0.002630 -0.017806 43.601223 0.000001 0.000000 0.000000 5.274761 -8.742173 92.892519 0.547194 -0.023847 24.644605 -0.000001 0.000001 -0.000003 6.360308 -16.998509 84.194362 0.007201 -0.007974 26.883549 0.000001 -0.000007 -0.000002 0.000000 -0.000002 -0.000001 0.000001 -0.000002 0.000001 0.000000 -0.000002 -0.000001 0.000000 0.000001 0.000000 -0.000000 0.000000 0.000000 0.000000 0.000001 0.000000 0.000000 0.000000 0.000002 -0.000000 -0.000001 0.000001 -0.000000 -0.000001 0.000001 -0.000000 -0.000001 0.000001 -0.000000 -0.000001 0.000001 -0.000000 -0.000001 0.000001 -0.000000 -0.000001 0.000001 -0.000000 -0.000001 0.000001 -0.000000 -0.000001 -0.000001 -0.000000 -0.000000 0.000001 
-2.558759 93.309509 0.000055 0.166104 -30.775695 -4.404804 -0.000000 -0.000001 0.000000 1.030090 9.257265 4.896685 22.127581 10.690837 3.868985 -23.283215 2.689575 -7.469608 0.000000 0.000001 -0.000000 0.000002 0.000000 0.000001 -24.424594 -0.930295 -7.378612 27.067693 -4.571821 -1.580201 5.641390 -0.254939 15.250397 -0.000000 0.000001 0.000000 -0.000000 0.000001 0.000001 13.160312 -3.760761 7.825152 1.044065 -1.321602 -0.765496 1.057085 -1.441476 -0.703518 1.311319 1.503755 0.725096 1.311326 1.503772 0.725095 -0.000002 -0.000002 0.000001 1.311390 1.503759 0.725095 1.311317 1.503739 0.725101 -0.000001 -0.000001 -0.000000 -0.000002 -0.000002 0.000001 6.340734 -2.904583 13.796385 -19.830039 -4.140536 -68.955179 0.037181 -23.088319 -0.659957 -17.345872 -13.934579 20.044331 0.707604 -0.869005 10.212390 6.180887 15.284119 2.977571 0.000004 -0.000001 -0.000001 0.495239 0.341795 -10.665831 -1.237447 0.822979 -22.233181 0.000002 -0.000001 0.000001 2.383756 0.399455 -39.442669 0.001476 0.004698 -11.502144 0.000000 0.000001 0.000001 4.143028 2.777532 -39.169854 -0.336245 -0.797458 -28.659119 0.000000 -0.000000 -0.000002 0.001452 0.025917 -46.510293 -0.000655 0.009624 -21.594633 -0.000000 -0.000002 0.000002 0.000001 0.000000 0.000000 0.000001 0.000000 0.000000 0.000000 0.000001 0.000000 -0.000001 -0.000002 -0.000002 -0.000000 -0.000001 -0.000003 -0.000001 -0.000002 -0.000002 -0.000002 -0.000001 -0.000002 -12.282412 -0.345158 -54.479211 -27.924564 0.480293 4.702373 -1.237214 154.030273 -72.171030 36.258647 19.689342 33.580509 28.260184 6.862756 -21.179684 14.266911 -33.827673 14.840819 -0.000000 0.000002 -0.000004 17.279844 -0.410150 32.242820 -0.209885 -0.292616 105.941910 0.000001 0.000000 -0.000000 9.239258 -4.961066 93.414906 0.009031 -0.017823 46.358331 0.000001 0.000000 -0.000001 5.595831 -9.014361 97.921929 0.544213 0.009305 26.426919 0.000001 0.000002 0.000001 6.438991 -17.207041 88.612518 0.004196 -0.010982 29.033351 -0.000000 0.000002 -0.000000 -0.000003 -0.000001 -0.000001 -0.000001 -0.000000 0.000001 -0.000004 -0.000001 -0.000001 0.000000 0.000002 0.000000 0.000000 0.000003 0.000002 0.000000 0.000002 0.000000 0.000001 0.000003 0.000004 0.000001 0.000003 -0.000000 0.000001 0.000003 -0.000000 0.000001 0.000003 -0.000000 0.000001 0.000003 -0.000000 0.000001 0.000003 -0.000000 0.000001 0.000003 -0.000000 0.000001 0.000003 -0.000000 -0.000000 0.000002 -0.000000 -0.000000 -0.000001 0.000000 
-3.107536 93.181892 -0.747540 0.809368 -31.196261 -3.995036 0.000000 0.000001 0.000000 -0.241212 9.062322 5.236342 22.824933 11.179787 4.496731 -23.128880 2.959491 -8.520748 0.000000 -0.000000 0.000000 -0.000002 -0.000002 0.000000 -27.512916 -1.078449 -8.551399 28.184733 -5.327989 -1.744734 11.478289 0.655230 13.728323 0.000000 0.000001 0.000000 0.000000 -0.000004 0.000000 12.443276 -3.156048 6.906520 1.167377 -1.094621 -0.904919 1.180335 -1.218525 -0.842163 1.500521 1.470179 0.563212 1.500521 1.470166 0.563215 -0.000000 0.000000 -0.000000 1.500525 1.470197 0.563205 1.500592 1.470153 0.563216 -0.000000 -0.000002 0.000001 -0.000000 0.000000 -0.000000 6.532512 -1.406072 13.099282 -22.091084 -5.375902 -66.219107 0.040948 -26.968778 0.404151 -17.355207 -14.796632 18.670722 0.708575 -0.872224 10.206859 6.180002 15.284517 2.977809 0.000002 -0.000002 0.000000 0.492879 0.338969 -10.656123 -1.238111 0.824406 -22.235046 -0.000004 -0.000002 -0.000001 2.380238 0.399419 -39.428981 0.001698 0.004724 -11.499616 0.000001 -0.000003 -0.000000 4.140732 2.778603 -39.158977 -0.336297 -0.797268 -28.651954 -0.000000 -0.000001 0.000000 0.000638 0.030460 -46.494802 -0.000808 0.009818 -21.592839 -0.000000 0.000002 0.000001 0.000002 -0.000001 0.000001 0.000002 -0.000001 0.000001 0.000001 -0.000001 0.000001 -0.000002 0.000001 -0.000003 -0.000001 0.000002 -0.000004 -0.000002 0.000001 -0.000003 -0.000003 0.000002 -0.000004 -10.489833 -1.756564 -54.503950 -27.896673 -0.130013 2.926589 -1.140299 151.018092 -72.982846 34.501106 16.397076 31.228772 27.667319 6.887762 -20.708114 14.879912 -35.691731 14.988305 -0.000000 -0.000000 -0.000001 17.953470 -0.476779 33.388680 -0.198930 -0.317534 110.002785 -0.000001 0.000002 -0.000001 9.628138 -4.718779 97.648940 0.008583 -0.018590 48.766731 0.000000 0.000001 -0.000001 5.922114 -9.246327 102.256634 0.541425 0.037789 28.035712 0.000000 0.000002 0.000000 6.548778 -17.430935 92.444418 0.002671 -0.013312 30.962269 0.000001 -0.000000 0.000001 -0.000001 0.000001 0.000002 0.000001 -0.000001 0.000001 -0.000001 0.000001 0.000002 0.000000 0.000000 -0.000003 -0.000000 0.000000 -0.000001 0.000000 0.000000 -0.000003 -0.000000 -0.000000 0.000000 0.000001 0.000002 -0.000001 0.000001 0.000002 -0.000001 0.000001 0.000002 -0.000001 0.000001 0.000002 -0.000001 0.000001 0.000002 -0.000001 0.000001 0.000002 -0.000001 0.000001 0.000002 -0.000001 -0.000000 -0.000001 -0.000000 0.000000 0.000001 0.000000 
